<svg xmlns="http://www.w3.org/2000/svg" width="1280" height="800" viewBox="0 0 1280 800"><defs><linearGradient id="bg" x1="0" y1="0" x2="1" y2="1"><stop stop-color="#e9f8f4"/><stop offset="1" stop-color="#d7f0ea"/></linearGradient><filter id="s"><feDropShadow dx="0" dy="24" stdDeviation="24" flood-color="#0a5148" flood-opacity=".16"/></filter></defs><rect width="1280" height="800" rx="42" fill="url(#bg)"/><rect x="68" y="64" width="1144" height="672" rx="24" fill="#fff" filter="url(#s)"/><rect x="68" y="64" width="1144" height="54" rx="24" fill="#f8fbfa"/><circle cx="100" cy="91" r="7" fill="#ff8f8f"/><circle cx="124" cy="91" r="7" fill="#ffd37a"/><circle cx="148" cy="91" r="7" fill="#65d5b0"/><text x="188" y="98" font-family="Arial" font-size="16" font-weight="700" fill="#10323b">SciNest · Research project</text><rect x="68" y="118" width="250" height="618" fill="#f6faf8"/><text x="94" y="158" font-family="Arial" font-size="15" font-weight="700" fill="#0a7569">Sources</text><rect x="92" y="178" width="202" height="42" rx="12" fill="#fff" stroke="#cfe4df"/><text x="110" y="204" font-family="Arial" font-size="13" fill="#83939a">Search files...</text><g font-family="Arial" font-size="12" fill="#334d56"><rect x="92" y="240" width="202" height="58" rx="14" fill="#fff" stroke="#8dd4c8"/><text x="112" y="265">□ Paper A.pdf</text><text x="112" y="284" fill="#91a0a5">Added to project context</text><rect x="92" y="310" width="202" height="58" rx="14" fill="#fff" stroke="#8dd4c8"/><text x="112" y="335">□ Notes B.docx</text><text x="112" y="354" fill="#91a0a5">Added to project context</text><rect x="92" y="380" width="202" height="58" rx="14" fill="#fff" stroke="#8dd4c8"/><text x="112" y="405">□ Figure C.png</text><text x="112" y="424" fill="#91a0a5">Added to project context</text></g><rect x="318" y="118" width="590" height="618" fill="#fff"/><text x="356" y="166" font-family="Arial" font-size="22" font-weight="700" fill="#10323b">Keep working with the same research context</text><rect x="356" y="194" width="510" height="112" rx="18" fill="#f3f8f6"/><text x="380" y="226" font-family="Arial" font-size="13" fill="#547078">Summarise the project direction and the main research questions.</text><rect x="410" y="336" width="456" height="226" rx="18" fill="#eaf7f3"/><text x="438" y="372" font-family="Arial" font-size="14" font-weight="700" fill="#0a7569">Research framework created from 8 selected sources</text><g stroke="#9bb2b5" stroke-width="8" stroke-linecap="round"><path d="M438 404h360"/><path d="M438 434h324"/><path d="M438 464h348"/><path d="M438 494h286"/></g><rect x="356" y="650" width="510" height="48" rx="14" fill="#fff" stroke="#cfe4df"/><text x="378" y="680" font-family="Arial" font-size="13" fill="#91a0a5">Continue, or send the result into writing, figures or slides...</text><rect x="908" y="118" width="304" height="618" fill="#f7fbfa"/><text x="940" y="166" font-family="Arial" font-size="16" font-weight="700" fill="#10323b">Outputs in this project</text><g font-family="Arial"><rect x="940" y="198" width="240" height="116" rx="18" fill="#fff" stroke="#cfe4df"/><text x="966" y="232" font-size="12" fill="#0a7569">01 · Writing</text><text x="966" y="264" font-size="16" font-weight="700" fill="#10323b">Structure and long-form draft</text><rect x="940" y="332" width="240" height="116" rx="18" fill="#fff" stroke="#cfe4df"/><text x="966" y="366" font-size="12" fill="#0a7569">02 · Figures</text><text x="966" y="398" font-size="16" font-weight="700" fill="#10323b">Editable layers and elements</text><rect x="940" y="466" width="240" height="116" rx="18" fill="#fff" stroke="#cfe4df"/><text x="966" y="500" font-size="12" fill="#0a7569">03 · Slides</text><text x="966" y="532" font-size="16" font-weight="700" fill="#10323b">A presentation you can refine</text></g></svg>