<svg xmlns="http://www.w3.org/2000/svg" width="1280" height="800" viewBox="0 0 1280 800"><rect width="1280" height="800" rx="36" fill="#eef7f4"/><rect x="54" y="56" width="1172" height="688" rx="22" fill="#fff" stroke="#cfe4df"/><rect x="54" y="56" width="1172" height="52" rx="22" fill="#f7faf9"/><text x="86" y="89" font-family="Arial" font-size="16" font-weight="700" fill="#14313b">SciNest · 文稿创作</text><rect x="54" y="108" width="260" height="636" fill="#f5f9f7"/><text x="84" y="150" font-family="Arial" font-size="14" font-weight="700" fill="#0a7569">资料与章节</text><g font-family="Arial" font-size="12"><rect x="80" y="174" width="208" height="42" rx="11" fill="#fff" stroke="#d2e5e0"/><text x="98" y="200" fill="#37515a">资料库（8）</text><rect x="80" y="234" width="208" height="52" rx="12" fill="#e8f6f2"/><text x="98" y="257" fill="#0a7569">H1 研究背景与目标</text><text x="98" y="276" fill="#83959b">当前编辑章节</text><rect x="80" y="298" width="208" height="42" rx="11" fill="#fff"/><text x="98" y="324" fill="#526872">H2 研究现状</text><rect x="80" y="350" width="208" height="42" rx="11" fill="#fff"/><text x="98" y="376" fill="#526872">H2 方法与证据</text><rect x="80" y="402" width="208" height="42" rx="11" fill="#fff"/><text x="98" y="428" fill="#526872">H2 讨论与结论</text></g><rect x="314" y="108" width="912" height="636" fill="#e9eeec"/><rect x="338" y="126" width="864" height="48" rx="10" fill="#fff"/><g stroke="#6c7f86" stroke-width="4" stroke-linecap="round"><path d="M370 150h18"/><path d="M410 150h18"/><path d="M456 144v13"/><path d="M486 144v13"/><path d="M526 144v13"/><path d="M566 144h24"/><path d="M626 150h28"/></g><rect x="430" y="194" width="690" height="510" rx="4" fill="#fff"/><text x="494" y="252" font-family="Arial" font-size="25" font-weight="700" fill="#112c36">研究背景与目标</text><text x="494" y="300" font-family="Arial" font-size="17" font-weight="700" fill="#203d47">1.1 研究问题</text><g stroke="#91a3a8" stroke-width="7" stroke-linecap="round"><path d="M494 330h540"/><path d="M494 360h506"/><path d="M494 390h522"/><path d="M494 420h476"/><path d="M494 466h536"/><path d="M494 496h500"/><path d="M494 526h520"/><path d="M494 556h460"/></g><rect x="840" y="610" width="220" height="52" rx="14" fill="#e7f6f2" stroke="#8ed1c6"/><text x="872" y="642" font-family="Arial" font-size="14" font-weight="700" fill="#0a7569">局部改写 · 扩写 · 精简</text></svg>